# xmcd
# 
# Track frame offsets:
#     150
#     28229
#     46635
#     63542
#     84105
#     101841
#     131037
#     147063
#     171136
#     197857
#     217408
#     230029
# 
# Disc length: 3341
# 
# Revision: 24
# Processed by: cddbd v1.5.2PL0 Copyright (c) Steve Scherf et al.
# Submitted via: fre:ac v1.0.17
# 
DISCID=b10d0b0c
DTITLE=Mark Knopfler - The Ragpicker's Dream
DYEAR=2002
DGENRE=Pop/Rock
TTITLE0=Why Aye Man
TTITLE1=Devil Baby
TTITLE2=Hill Farmer's Blues
TTITLE3=A Place Where We Used To Live
TTITLE4=Quality Shoe
TTITLE5=Far Thee Well Northumberland
TTITLE6=Marbletown
TTITLE7=You Don't Know You're Born
TTITLE8=Coyote
TTITLE9=The Ragpicker's Dream
TTITLE10=Daddy's Gone To Knoxville
TTITLE11=Old Pigweed
EXTD=CD 2002\nMercury Records - 063 292-2
EXTT0=
EXTT1=
EXTT2=
EXTT3=
EXTT4=
EXTT5=
EXTT6=
EXTT7=
EXTT8=
EXTT9=
EXTT10=
EXTT11=
PLAYORDER=
